<?xml version="1.0" encoding="UTF-8" standalone="no"?>
<!-- Created with Inkscape (http://www.inkscape.org/) -->

<svg
   width="200"
   height="400"
   viewBox="0 0 52.916666 105.83333"
   version="1.1"
   id="svg5"
   xmlns="http://www.w3.org/2000/svg"
   xmlns:svg="http://www.w3.org/2000/svg">
  <defs
     id="defs2" />
  <g
     id="layer1">
    <rect
       style="fill:#333333;stroke-width:0.383825"
       id="rect788"
       width="52.935051"
       height="111.77135"
       x="0"
       y="-2.9065835" />
    <rect
       style="fill:#fff6d5;stroke-width:0.199349"
       id="rect1394"
       width="1"
       height="130.35588"
       x="50.20602"
       y="-9.864768" />
    <rect
       style="fill:#fff6d5;stroke-width:0.199349"
       id="rect1394-9"
       width="1"
       height="130.35588"
       x="1.9661921"
       y="-11.450182" />
    <path
       style="fill:#fff6d5;fill-opacity:1;stroke-width:0.264583"
       id="path2094"
       d="m 25.330709,-7.6033902 c 0.02259,0.7967451 0.02084,1.59394 0.01887,2.3909298 1.88e-4,0.8590939 -4.24e-4,1.7181838 -0.0024,2.5772756 -5.83e-4,0.7289658 -0.0024,1.457937 -0.0048,2.1868983 -0.0024,0.67213704 0.0024,1.34427379 0.0013,2.016406 0.0086,0.6583554 -0.02358,1.3175202 0.01938,1.974818 0.06813,0.7575904 0.129036,1.5155592 0.196562,2.2732031 0.15801,1.3359815 0.244875,2.6787861 0.392019,4.0158855 0.136229,1.0587689 0.219015,2.1222809 0.259216,3.1886679 0.02752,0.962974 0.02594,1.926517 0.02323,2.889795 -0.0117,0.809715 -0.0056,1.619463 -6.61e-4,2.429202 0.0039,0.972916 -0.0015,1.945838 -0.0017,2.918759 -0.0016,1.211111 0.01435,2.422087 0.02062,3.633167 0.0015,1.606364 0.0035,3.212763 -4.5e-4,4.819133 0.0027,1.489012 -0.0012,2.977999 -0.0073,4.466995 -0.05139,1.171501 -0.08702,2.345264 -0.174192,3.514841 -0.09003,1.028383 -0.141097,2.059755 -0.170626,3.0915 -0.0278,0.962856 -0.01929,1.926331 -0.01758,2.889465 0.0015,1.25899 0.0046,2.517849 0.01838,3.776765 2.24e-4,1.723329 0.0073,3.446651 0.0071,5.169977 -0.0081,1.980665 0.0074,3.961122 0.01942,5.941695 0.0024,2.247178 -0.0046,4.494308 -0.0141,6.741464 -0.0021,1.800595 -0.009,3.601201 -0.0083,5.4018 -0.0053,1.787273 0.0044,3.574547 0.0074,5.361818 0.0088,1.69664 0.0024,3.392741 -0.06483,5.088088 -0.06698,1.575946 -0.09511,3.153362 -0.111347,4.730562 -0.01776,1.489744 -0.01314,2.979589 -0.01784,4.469387 0.0062,1.452769 -0.0014,2.90554 0.0011,4.358319 0.0026,1.444094 -0.01633,2.888293 0.02407,4.331952 0.05514,1.324562 0.101713,2.649262 0.124993,3.974782 0.0142,1.03025 0.01516,2.06064 0.01215,3.09096 0.04317,0.86886 0.106151,1.73632 0.142572,2.60558 0.03816,0.98863 0.03553,1.9782 0.02958,2.96736 0.0068,0.89648 0.08485,1.79099 0.126522,2.68651 0.04396,0.83748 0.04659,1.67642 0.04545,2.51484 -0.0024,0.58727 -0.0037,1.17455 -0.003,1.76182 0.01619,0.3014 0.04969,0.60145 0.07974,0.90166 0,0 1.813996,-0.018 1.813996,-0.018 v 0 c -0.02917,-0.29422 -0.06427,-0.58806 -0.07885,-0.88351 0.0016,-0.58765 0.0021,-1.17535 -0.005,-1.76297 -0.01061,-0.84135 -0.02278,-1.68273 -0.04988,-2.52374 -0.05666,-0.8914 -0.133789,-1.78331 -0.128392,-2.67706 -0.01103,-0.99117 -0.02098,-1.98237 -0.03499,-2.97351 -0.02764,-0.86767 -0.100999,-1.73226 -0.144317,-2.59913 -0.005,-1.03151 -0.0077,-2.06307 -0.02982,-3.0944 -0.03043,-1.32602 -0.08345,-2.65116 -0.145542,-3.976056 -0.03983,-1.441969 -0.006,-2.884694 -0.0186,-4.327105 0.0021,-1.452763 -0.0067,-2.905513 -7.94e-4,-4.358269 -0.0044,-1.489168 -1.22e-4,-2.978399 0.0074,-4.46755 0.01717,-1.575687 0.04202,-3.151371 0.117861,-4.725549 0.06554,-1.698135 0.03355,-3.395837 0.03548,-5.094957 0.003,-1.787271 0.01273,-3.574544 0.0074,-5.361818 7.94e-4,-1.800598 -0.0063,-3.601204 -0.0083,-5.401799 -0.0096,-2.247157 -0.01646,-4.494287 -0.01407,-6.741464 0.01204,-1.980576 0.02754,-3.961032 0.01942,-5.941698 -2.65e-4,-1.72334 0.0067,-3.446674 0.0063,-5.170016 0.01315,-1.258883 0.01476,-2.517693 0.01577,-3.776642 0.0026,-0.961593 0.0076,-1.923198 0.02402,-2.88467 0.02662,-1.029266 0.0706,-2.057961 0.165224,-3.083565 0.08135,-1.17402 0.107167,-2.35195 0.156411,-3.527652 -0.0061,-1.488996 -0.01,-2.977984 -0.0073,-4.466995 -0.004,-1.60637 -0.0019,-3.212769 -5.29e-4,-4.819134 0.0063,-1.211077 0.02223,-2.422051 0.02061,-3.63316 -1.61e-4,-0.972885 -0.0054,-1.945778 -5.29e-4,-2.918657 0.006,-0.809762 0.01423,-1.619536 0.0045,-2.429306 -0.0027,-0.965541 -0.0024,-1.931203 -0.02955,-2.896459 C 27.959496,11.942053 27.870471,10.874347 27.717508,9.8120395 27.561097,8.4779397 27.476726,7.1380791 27.348192,5.8012901 27.289711,5.044342 27.252058,4.2864029 27.173903,3.5310976 c -0.04281,-0.653158 -0.01241,-1.3087479 -0.02275,-1.9629834 -0.0011,-0.6721322 0.0037,-1.34426895 0.0013,-2.01640599 -0.0024,-0.72896131 -0.0042,-1.45793251 -0.0048,-2.18689831 -0.0021,-0.8590918 -0.0026,-1.7181817 -0.0024,-2.5772756 -0.0019,-0.7969898 -0.0037,-1.5941847 0.01886,-2.3909297 0,0 -1.833244,0 -1.833244,0 z" />
  </g>
  <g
     id="layer2">
    <rect
       style="fill:#333333;fill-opacity:1;stroke-width:0.299257"
       id="rect1944-3"
       width="28.889679"
       height="25.014235"
       x="12.683274"
       y="25.014235" />
    <rect
       style="fill:#333333;fill-opacity:1;stroke-width:0.299257"
       id="rect1944-3-5-0"
       width="28.889679"
       height="25.014235"
       x="12.859432"
       y="75.571175" />
  </g>
</svg>
